<?xml version="1.0" encoding="UTF-8" standalone="no"?>
<svg
   xmlns:dc="http://purl.org/dc/elements/1.1/"
   xmlns:cc="http://creativecommons.org/ns#"
   xmlns:rdf="http://www.w3.org/1999/02/22-rdf-syntax-ns#"
   xmlns:svg="http://www.w3.org/2000/svg"
   xmlns="http://www.w3.org/2000/svg"
   viewBox="0 0 517.53387 429.47433"
   height="429.47433"
   width="517.53387"
   xml:space="preserve"
   id="svg9566"
   version="1.1"><metadata
     id="metadata9572"><rdf:RDF><cc:Work
         rdf:about=""><dc:format>image/svg+xml</dc:format><dc:type
           rdf:resource="http://purl.org/dc/dcmitype/StillImage" /><dc:title></dc:title></cc:Work></rdf:RDF></metadata><defs
     id="defs9570"><clipPath
       id="clipPath9586"
       clipPathUnits="userSpaceOnUse"><path
         id="path9584"
         d="M 20.330422,45.29375 H 377.45042 v 266.112 H 20.330422 Z" /></clipPath><clipPath
       id="clipPath9596"
       clipPathUnits="userSpaceOnUse"><path
         id="path9594"
         d="M 20.330422,45.29375 H 377.45042 v 266.112 H 20.330422 Z" /></clipPath><clipPath
       id="clipPath9606"
       clipPathUnits="userSpaceOnUse"><path
         id="path9604"
         d="M 20.330422,45.29375 H 377.45042 v 266.112 H 20.330422 Z" /></clipPath><clipPath
       id="clipPath9616"
       clipPathUnits="userSpaceOnUse"><path
         id="path9614"
         d="M 20.330422,45.29375 H 377.45042 v 266.112 H 20.330422 Z" /></clipPath><clipPath
       id="clipPath9626"
       clipPathUnits="userSpaceOnUse"><path
         id="path9624"
         d="M 20.330422,45.29375 H 377.45042 v 266.112 H 20.330422 Z" /></clipPath><clipPath
       id="clipPath9636"
       clipPathUnits="userSpaceOnUse"><path
         id="path9634"
         d="M 20.330422,45.29375 H 377.45042 v 266.112 H 20.330422 Z" /></clipPath><clipPath
       id="clipPath9646"
       clipPathUnits="userSpaceOnUse"><path
         id="path9644"
         d="M 20.330422,45.29375 H 377.45042 v 266.112 H 20.330422 Z" /></clipPath><clipPath
       id="clipPath9656"
       clipPathUnits="userSpaceOnUse"><path
         id="path9654"
         d="M 20.330422,45.29375 H 377.45042 v 266.112 H 20.330422 Z" /></clipPath><clipPath
       id="clipPath9666"
       clipPathUnits="userSpaceOnUse"><path
         id="path9664"
         d="M 20.330422,45.29375 H 377.45042 v 266.112 H 20.330422 Z" /></clipPath><clipPath
       id="clipPath9676"
       clipPathUnits="userSpaceOnUse"><path
         id="path9674"
         d="M 20.330422,45.29375 H 377.45042 v 266.112 H 20.330422 Z" /></clipPath><clipPath
       id="clipPath9686"
       clipPathUnits="userSpaceOnUse"><path
         id="path9684"
         d="M 20.330422,45.29375 H 377.45042 v 266.112 H 20.330422 Z" /></clipPath><clipPath
       id="clipPath9696"
       clipPathUnits="userSpaceOnUse"><path
         id="path9694"
         d="M 20.330422,45.29375 H 377.45042 v 266.112 H 20.330422 Z" /></clipPath><clipPath
       id="clipPath9706"
       clipPathUnits="userSpaceOnUse"><path
         id="path9704"
         d="M 20.330422,45.29375 H 377.45042 v 266.112 H 20.330422 Z" /></clipPath><clipPath
       id="clipPath9716"
       clipPathUnits="userSpaceOnUse"><path
         id="path9714"
         d="M 20.330422,45.29375 H 377.45042 v 266.112 H 20.330422 Z" /></clipPath><clipPath
       id="clipPath9726"
       clipPathUnits="userSpaceOnUse"><path
         id="path9724"
         d="M 20.330422,45.29375 H 377.45042 v 266.112 H 20.330422 Z" /></clipPath><clipPath
       id="clipPath9736"
       clipPathUnits="userSpaceOnUse"><path
         id="path9734"
         d="M 20.330422,45.29375 H 377.45042 v 266.112 H 20.330422 Z" /></clipPath><clipPath
       id="clipPath9746"
       clipPathUnits="userSpaceOnUse"><path
         id="path9744"
         d="M 20.330422,45.29375 H 377.45042 v 266.112 H 20.330422 Z" /></clipPath><clipPath
       id="clipPath9756"
       clipPathUnits="userSpaceOnUse"><path
         id="path9754"
         d="M 20.330422,45.29375 H 377.45042 v 266.112 H 20.330422 Z" /></clipPath><clipPath
       id="clipPath9766"
       clipPathUnits="userSpaceOnUse"><path
         id="path9764"
         d="M 20.330422,45.29375 H 377.45042 v 266.112 H 20.330422 Z" /></clipPath><clipPath
       id="clipPath9776"
       clipPathUnits="userSpaceOnUse"><path
         id="path9774"
         d="M 20.330422,45.29375 H 377.45042 v 266.112 H 20.330422 Z" /></clipPath><clipPath
       id="clipPath9786"
       clipPathUnits="userSpaceOnUse"><path
         id="path9784"
         d="M 20.330422,45.29375 H 377.45042 v 266.112 H 20.330422 Z" /></clipPath><clipPath
       id="clipPath9796"
       clipPathUnits="userSpaceOnUse"><path
         id="path9794"
         d="M 20.330422,45.29375 H 377.45042 v 266.112 H 20.330422 Z" /></clipPath><clipPath
       id="clipPath9806"
       clipPathUnits="userSpaceOnUse"><path
         id="path9804"
         d="M 20.330422,45.29375 H 377.45042 v 266.112 H 20.330422 Z" /></clipPath><clipPath
       id="clipPath9816"
       clipPathUnits="userSpaceOnUse"><path
         id="path9814"
         d="M 20.330422,45.29375 H 377.45042 v 266.112 H 20.330422 Z" /></clipPath><clipPath
       id="clipPath9826"
       clipPathUnits="userSpaceOnUse"><path
         id="path9824"
         d="M 20.330422,45.29375 H 377.45042 v 266.112 H 20.330422 Z" /></clipPath><clipPath
       id="clipPath9836"
       clipPathUnits="userSpaceOnUse"><path
         id="path9834"
         d="M 20.330422,45.29375 H 377.45042 v 266.112 H 20.330422 Z" /></clipPath><clipPath
       id="clipPath9846"
       clipPathUnits="userSpaceOnUse"><path
         id="path9844"
         d="M 20.330422,45.29375 H 377.45042 v 266.112 H 20.330422 Z" /></clipPath><clipPath
       id="clipPath9856"
       clipPathUnits="userSpaceOnUse"><path
         id="path9854"
         d="M 20.330422,45.29375 H 377.45042 v 266.112 H 20.330422 Z" /></clipPath><clipPath
       id="clipPath9866"
       clipPathUnits="userSpaceOnUse"><path
         id="path9864"
         d="M 20.330422,45.29375 H 377.45042 v 266.112 H 20.330422 Z" /></clipPath><clipPath
       id="clipPath9876"
       clipPathUnits="userSpaceOnUse"><path
         id="path9874"
         d="M 20.330422,45.29375 H 377.45042 v 266.112 H 20.330422 Z" /></clipPath><clipPath
       id="clipPath9886"
       clipPathUnits="userSpaceOnUse"><path
         id="path9884"
         d="M 20.330422,45.29375 H 377.45042 v 266.112 H 20.330422 Z" /></clipPath><clipPath
       id="clipPath9896"
       clipPathUnits="userSpaceOnUse"><path
         id="path9894"
         d="M 20.330422,45.29375 H 377.45042 v 266.112 H 20.330422 Z" /></clipPath><clipPath
       id="clipPath9906"
       clipPathUnits="userSpaceOnUse"><path
         id="path9904"
         d="M 20.330422,45.29375 H 377.45042 v 266.112 H 20.330422 Z" /></clipPath><clipPath
       id="clipPath9916"
       clipPathUnits="userSpaceOnUse"><path
         id="path9914"
         d="M 20.330422,45.29375 H 377.45042 v 266.112 H 20.330422 Z" /></clipPath><clipPath
       id="clipPath9926"
       clipPathUnits="userSpaceOnUse"><path
         id="path9924"
         d="M 20.330422,45.29375 H 377.45042 v 266.112 H 20.330422 Z" /></clipPath><clipPath
       id="clipPath9936"
       clipPathUnits="userSpaceOnUse"><path
         id="path9934"
         d="M 20.330422,45.29375 H 377.45042 v 266.112 H 20.330422 Z" /></clipPath><clipPath
       id="clipPath9946"
       clipPathUnits="userSpaceOnUse"><path
         id="path9944"
         d="M 20.330422,45.29375 H 377.45042 v 266.112 H 20.330422 Z" /></clipPath><clipPath
       id="clipPath9956"
       clipPathUnits="userSpaceOnUse"><path
         id="path9954"
         d="M 20.330422,45.29375 H 377.45042 v 266.112 H 20.330422 Z" /></clipPath><clipPath
       id="clipPath9966"
       clipPathUnits="userSpaceOnUse"><path
         id="path9964"
         d="M 20.330422,45.29375 H 377.45042 v 266.112 H 20.330422 Z" /></clipPath><clipPath
       id="clipPath9976"
       clipPathUnits="userSpaceOnUse"><path
         id="path9974"
         d="M 20.330422,45.29375 H 377.45042 v 266.112 H 20.330422 Z" /></clipPath><clipPath
       id="clipPath9986"
       clipPathUnits="userSpaceOnUse"><path
         id="path9984"
         d="M 20.330422,45.29375 H 377.45042 v 266.112 H 20.330422 Z" /></clipPath><clipPath
       id="clipPath9996"
       clipPathUnits="userSpaceOnUse"><path
         id="path9994"
         d="M 20.330422,45.29375 H 377.45042 v 266.112 H 20.330422 Z" /></clipPath><clipPath
       id="clipPath10006"
       clipPathUnits="userSpaceOnUse"><path
         id="path10004"
         d="M 20.330422,45.29375 H 377.45042 v 266.112 H 20.330422 Z" /></clipPath><clipPath
       id="clipPath10016"
       clipPathUnits="userSpaceOnUse"><path
         id="path10014"
         d="M 20.330422,45.29375 H 377.45042 v 266.112 H 20.330422 Z" /></clipPath><clipPath
       id="clipPath10026"
       clipPathUnits="userSpaceOnUse"><path
         id="path10024"
         d="M 20.330422,45.29375 H 377.45042 v 266.112 H 20.330422 Z" /></clipPath><clipPath
       id="clipPath10036"
       clipPathUnits="userSpaceOnUse"><path
         id="path10034"
         d="M 20.330422,45.29375 H 377.45042 v 266.112 H 20.330422 Z" /></clipPath><clipPath
       id="clipPath10046"
       clipPathUnits="userSpaceOnUse"><path
         id="path10044"
         d="M 20.330422,45.29375 H 377.45042 v 266.112 H 20.330422 Z" /></clipPath><clipPath
       id="clipPath10056"
       clipPathUnits="userSpaceOnUse"><path
         id="path10054"
         d="M 20.330422,45.29375 H 377.45042 v 266.112 H 20.330422 Z" /></clipPath><clipPath
       id="clipPath10066"
       clipPathUnits="userSpaceOnUse"><path
         id="path10064"
         d="M 20.330422,45.29375 H 377.45042 v 266.112 H 20.330422 Z" /></clipPath><clipPath
       id="clipPath10076"
       clipPathUnits="userSpaceOnUse"><path
         id="path10074"
         d="M 20.330422,45.29375 H 377.45042 v 266.112 H 20.330422 Z" /></clipPath><clipPath
       id="clipPath10086"
       clipPathUnits="userSpaceOnUse"><path
         id="path10084"
         d="M 20.330422,45.29375 H 377.45042 v 266.112 H 20.330422 Z" /></clipPath><clipPath
       id="clipPath10096"
       clipPathUnits="userSpaceOnUse"><path
         id="path10094"
         d="M 20.330422,45.29375 H 377.45042 v 266.112 H 20.330422 Z" /></clipPath><clipPath
       id="clipPath10106"
       clipPathUnits="userSpaceOnUse"><path
         id="path10104"
         d="M 20.330422,45.29375 H 377.45042 v 266.112 H 20.330422 Z" /></clipPath><clipPath
       id="clipPath10116"
       clipPathUnits="userSpaceOnUse"><path
         id="path10114"
         d="M 20.330422,45.29375 H 377.45042 v 266.112 H 20.330422 Z" /></clipPath><clipPath
       id="clipPath10126"
       clipPathUnits="userSpaceOnUse"><path
         id="path10124"
         d="M 20.330422,45.29375 H 377.45042 v 266.112 H 20.330422 Z" /></clipPath><clipPath
       id="clipPath10136"
       clipPathUnits="userSpaceOnUse"><path
         id="path10134"
         d="M 20.330422,45.29375 H 377.45042 v 266.112 H 20.330422 Z" /></clipPath><clipPath
       id="clipPath10146"
       clipPathUnits="userSpaceOnUse"><path
         id="path10144"
         d="M 20.330422,45.29375 H 377.45042 v 266.112 H 20.330422 Z" /></clipPath><clipPath
       id="clipPath10156"
       clipPathUnits="userSpaceOnUse"><path
         id="path10154"
         d="M 20.330422,45.29375 H 377.45042 v 266.112 H 20.330422 Z" /></clipPath><clipPath
       id="clipPath10166"
       clipPathUnits="userSpaceOnUse"><path
         id="path10164"
         d="M 20.330422,45.29375 H 377.45042 v 266.112 H 20.330422 Z" /></clipPath><clipPath
       id="clipPath10176"
       clipPathUnits="userSpaceOnUse"><path
         id="path10174"
         d="M 20.330422,45.29375 H 377.45042 v 266.112 H 20.330422 Z" /></clipPath><clipPath
       id="clipPath10186"
       clipPathUnits="userSpaceOnUse"><path
         id="path10184"
         d="M 20.330422,45.29375 H 377.45042 v 266.112 H 20.330422 Z" /></clipPath><clipPath
       id="clipPath10196"
       clipPathUnits="userSpaceOnUse"><path
         id="path10194"
         d="M 20.330422,45.29375 H 377.45042 v 266.112 H 20.330422 Z" /></clipPath><clipPath
       id="clipPath10206"
       clipPathUnits="userSpaceOnUse"><path
         id="path10204"
         d="M 20.330422,45.29375 H 377.45042 v 266.112 H 20.330422 Z" /></clipPath><clipPath
       id="clipPath10216"
       clipPathUnits="userSpaceOnUse"><path
         id="path10214"
         d="M 20.330422,45.29375 H 377.45042 v 266.112 H 20.330422 Z" /></clipPath><clipPath
       id="clipPath10226"
       clipPathUnits="userSpaceOnUse"><path
         id="path10224"
         d="M 20.330422,45.29375 H 377.45042 v 266.112 H 20.330422 Z" /></clipPath><clipPath
       id="clipPath10236"
       clipPathUnits="userSpaceOnUse"><path
         id="path10234"
         d="M 20.330422,45.29375 H 377.45042 v 266.112 H 20.330422 Z" /></clipPath><clipPath
       id="clipPath10246"
       clipPathUnits="userSpaceOnUse"><path
         id="path10244"
         d="M 20.330422,45.29375 H 377.45042 v 266.112 H 20.330422 Z" /></clipPath><clipPath
       id="clipPath10256"
       clipPathUnits="userSpaceOnUse"><path
         id="path10254"
         d="M 20.330422,45.29375 H 377.45042 v 266.112 H 20.330422 Z" /></clipPath><clipPath
       id="clipPath10266"
       clipPathUnits="userSpaceOnUse"><path
         id="path10264"
         d="M 20.330422,45.29375 H 377.45042 v 266.112 H 20.330422 Z" /></clipPath><clipPath
       id="clipPath10276"
       clipPathUnits="userSpaceOnUse"><path
         id="path10274"
         d="M 20.330422,45.29375 H 377.45042 v 266.112 H 20.330422 Z" /></clipPath><clipPath
       id="clipPath10286"
       clipPathUnits="userSpaceOnUse"><path
         id="path10284"
         d="M 20.330422,45.29375 H 377.45042 v 266.112 H 20.330422 Z" /></clipPath><clipPath
       id="clipPath10338"
       clipPathUnits="userSpaceOnUse"><path
         id="path10336"
         d="M 20.330422,45.29375 H 377.45042 v 266.112 H 20.330422 Z" /></clipPath><clipPath
       id="clipPath10348"
       clipPathUnits="userSpaceOnUse"><path
         id="path10346"
         d="M 20.330422,45.29375 H 377.45042 v 266.112 H 20.330422 Z" /></clipPath></defs><g
     transform="matrix(1.3333333,0,0,-1.3333333,0,429.47433)"
     id="g9574"><path
       id="path9576"
       style="fill:#ffffff;fill-opacity:1;fill-rule:nonzero;stroke:none"
       d="M 0,0 H 388.15042 V 322.10575 H 0 Z" /><path
       id="path9578"
       style="fill:#ffffff;fill-opacity:1;fill-rule:nonzero;stroke:none"
       d="M 20.330422,45.29375 H 377.45042 v 266.112 H 20.330422 Z" /><g
       id="g9580"><g
         clip-path="url(#clipPath9586)"
         id="g9582"><path
           id="path9588"
           style="fill:#0173b2;fill-opacity:0.4;fill-rule:nonzero;stroke:none"
           d="m 22.785937,45.29375 h 6.568999 v 244.01261 h -6.568999 z" /></g></g><g
       id="g9590"><g
         clip-path="url(#clipPath9596)"
         id="g9592"><path
           id="path9598"
           style="fill:#0173b2;fill-opacity:0.4;fill-rule:nonzero;stroke:none"
           d="m 29.354936,45.29375 h 6.568999 v 160.4959 h -6.568999 z" /></g></g><g
       id="g9600"><g
         clip-path="url(#clipPath9606)"
         id="g9602"><path
           id="path9608"
           style="fill:#0173b2;fill-opacity:0.4;fill-rule:nonzero;stroke:none"
           d="m 35.923935,45.29375 h 6.568999 v 74.8055 h -6.568999 z" /></g></g><g
       id="g9610"><g
         clip-path="url(#clipPath9616)"
         id="g9612"><path
           id="path9618"
           style="fill:#0173b2;fill-opacity:0.4;fill-rule:nonzero;stroke:none"
           d="m 42.492934,45.29375 h 6.568999 v 36.936369 h -6.568999 z" /></g></g><g
       id="g9620"><g
         clip-path="url(#clipPath9626)"
         id="g9622"><path
           id="path9628"
           style="fill:#0173b2;fill-opacity:0.4;fill-rule:nonzero;stroke:none"
           d="m 49.061933,45.29375 h 6.568999 v 18.8154 h -6.568999 z" /></g></g><g
       id="g9630"><g
         clip-path="url(#clipPath9636)"
         id="g9632"><path
           id="path9638"
           style="fill:#0173b2;fill-opacity:0.4;fill-rule:nonzero;stroke:none"
           d="m 55.630932,45.29375 h 6.568999 v 12.310753 h -6.568999 z" /></g></g><g
       id="g9640"><g
         clip-path="url(#clipPath9646)"
         id="g9642"><path
           id="path9648"
           style="fill:#0173b2;fill-opacity:0.4;fill-rule:nonzero;stroke:none"
           d="m 62.199931,45.29375 h 6.568998 V 55.3815 h -6.568998 z" /></g></g><g
       id="g9650"><g
         clip-path="url(#clipPath9656)"
         id="g9652"><path
           id="path9658"
           style="fill:#0173b2;fill-opacity:0.4;fill-rule:nonzero;stroke:none"
           d="m 68.768929,45.29375 h 6.568999 v 7.211406 h -6.568999 z" /></g></g><g
       id="g9660"><g
         clip-path="url(#clipPath9666)"
         id="g9662"><path
           id="path9668"
           style="fill:#0173b2;fill-opacity:0.4;fill-rule:nonzero;stroke:none"
           d="m 75.337928,45.29375 h 6.568999 v 4.277535 h -6.568999 z" /></g></g><g
       id="g9670"><g
         clip-path="url(#clipPath9676)"
         id="g9672"><path
           id="path9678"
           style="fill:#0173b2;fill-opacity:0.4;fill-rule:nonzero;stroke:none"
           d="m 81.906927,45.29375 h 6.568999 v 2.469547 h -6.568999 z" /></g></g><g
       id="g9680"><g
         clip-path="url(#clipPath9686)"
         id="g9682"><path
           id="path9688"
           style="fill:#0173b2;fill-opacity:0.4;fill-rule:nonzero;stroke:none"
           d="m 88.475926,45.29375 h 6.568999 v 1.364209 h -6.568999 z" /></g></g><g
       id="g9690"><g
         clip-path="url(#clipPath9696)"
         id="g9692"><path
           id="path9698"
           style="fill:#0173b2;fill-opacity:0.4;fill-rule:nonzero;stroke:none"
           d="m 95.044925,45.29375 h 6.568995 v 0.990284 h -6.568995 z" /></g></g><g
       id="g9700"><g
         clip-path="url(#clipPath9706)"
         id="g9702"><path
           id="path9708"
           style="fill:#0173b2;fill-opacity:0.4;fill-rule:nonzero;stroke:none"
           d="m 101.61392,45.29375 h 6.569 v 0.591705 h -6.569 z" /></g></g><g
       id="g9710"><g
         clip-path="url(#clipPath9716)"
         id="g9712"><path
           id="path9718"
           style="fill:#0173b2;fill-opacity:0.4;fill-rule:nonzero;stroke:none"
           d="m 108.18292,45.29375 h 6.569 v 0.669777 h -6.569 z" /></g></g><g
       id="g9720"><g
         clip-path="url(#clipPath9726)"
         id="g9722"><path
           id="path9728"
           style="fill:#0173b2;fill-opacity:0.4;fill-rule:nonzero;stroke:none"
           d="m 114.75192,45.29375 h 6.569 v 0.505415 h -6.569 z" /></g></g><g
       id="g9730"><g
         clip-path="url(#clipPath9736)"
         id="g9732"><path
           id="path9738"
           style="fill:#0173b2;fill-opacity:0.4;fill-rule:nonzero;stroke:none"
           d="m 121.32092,45.29375 h 6.569 v 0.398579 h -6.569 z" /></g></g><g
       id="g9740"><g
         clip-path="url(#clipPath9746)"
         id="g9742"><path
           id="path9748"
           style="fill:#0173b2;fill-opacity:0.4;fill-rule:nonzero;stroke:none"
           d="m 127.88992,45.29375 h 6.569 v 0.406797 h -6.569 z" /></g></g><g
       id="g9750"><g
         clip-path="url(#clipPath9756)"
         id="g9752"><path
           id="path9758"
           style="fill:#0173b2;fill-opacity:0.4;fill-rule:nonzero;stroke:none"
           d="m 134.45892,45.29375 h 6.569 v 0.287634 h -6.569 z" /></g></g><g
       id="g9760"><g
         clip-path="url(#clipPath9766)"
         id="g9762"><path
           id="path9768"
           style="fill:#0173b2;fill-opacity:0.4;fill-rule:nonzero;stroke:none"
           d="m 141.02792,45.29375 h 6.569 v 0.304071 h -6.569 z" /></g></g><g
       id="g9770"><g
         clip-path="url(#clipPath9776)"
         id="g9772"><path
           id="path9778"
           style="fill:#0173b2;fill-opacity:0.4;fill-rule:nonzero;stroke:none"
           d="m 147.59692,45.29375 h 6.56899 v 0.246544 h -6.56899 z" /></g></g><g
       id="g9780"><g
         clip-path="url(#clipPath9786)"
         id="g9782"><path
           id="path9788"
           style="fill:#0173b2;fill-opacity:0.4;fill-rule:nonzero;stroke:none"
           d="m 154.16591,45.29375 h 6.569 v 0.110945 h -6.569 z" /></g></g><g
       id="g9790"><g
         clip-path="url(#clipPath9796)"
         id="g9792"><path
           id="path9798"
           style="fill:#0173b2;fill-opacity:0.4;fill-rule:nonzero;stroke:none"
           d="m 160.73491,45.29375 h 6.569 v 0.106836 h -6.569 z" /></g></g><g
       id="g9800"><g
         clip-path="url(#clipPath9806)"
         id="g9802"><path
           id="path9808"
           style="fill:#0173b2;fill-opacity:0.4;fill-rule:nonzero;stroke:none"
           d="m 167.30391,45.29375 h 6.569 v 0.07807 h -6.569 z" /></g></g><g
       id="g9810"><g
         clip-path="url(#clipPath9816)"
         id="g9812"><path
           id="path9818"
           style="fill:#0173b2;fill-opacity:0.4;fill-rule:nonzero;stroke:none"
           d="m 173.87291,45.29375 h 6.569 v 0.01233 h -6.569 z" /></g></g><g
       id="g9820"><g
         clip-path="url(#clipPath9826)"
         id="g9822"><path
           id="path9828"
           style="fill:#0173b2;fill-opacity:0.4;fill-rule:nonzero;stroke:none"
           d="m 180.44191,45.29375 h 6.569 v 0.0452 h -6.569 z" /></g></g><g
       id="g9830"><g
         clip-path="url(#clipPath9836)"
         id="g9832"><path
           id="path9838"
           style="fill:#0173b2;fill-opacity:0.4;fill-rule:nonzero;stroke:none"
           d="m 187.01091,45.29375 h 6.569 v 0.0452 h -6.569 z" /></g></g><g
       id="g9840"><g
         clip-path="url(#clipPath9846)"
         id="g9842"><path
           id="path9848"
           style="fill:#0173b2;fill-opacity:0.4;fill-rule:nonzero;stroke:none"
           d="m 193.57991,45.29375 h 6.569 v 0.01644 h -6.569 z" /></g></g><g
       id="g9850"><g
         clip-path="url(#clipPath9856)"
         id="g9852"><path
           id="path9858"
           style="fill:#0173b2;fill-opacity:0.4;fill-rule:nonzero;stroke:none"
           d="m 200.14891,45.29375 h 6.56899 v 0.02465 h -6.56899 z" /></g></g><g
       id="g9860"><g
         clip-path="url(#clipPath9866)"
         id="g9862"><path
           id="path9868"
           style="fill:#0173b2;fill-opacity:0.4;fill-rule:nonzero;stroke:none"
           d="m 206.7179,45.29375 h 6.569 v 0.02465 h -6.569 z" /></g></g><g
       id="g9870"><g
         clip-path="url(#clipPath9876)"
         id="g9872"><path
           id="path9878"
           style="fill:#0173b2;fill-opacity:0.4;fill-rule:nonzero;stroke:none"
           d="m 213.2869,45.29375 h 6.569 v 0.01233 h -6.569 z" /></g></g><g
       id="g9880"><g
         clip-path="url(#clipPath9886)"
         id="g9882"><path
           id="path9888"
           style="fill:#0173b2;fill-opacity:0.4;fill-rule:nonzero;stroke:none"
           d="m 219.8559,45.29375 h 6.569 v 0.0082 h -6.569 z" /></g></g><g
       id="g9890"><g
         clip-path="url(#clipPath9896)"
         id="g9892"><path
           id="path9898"
           style="fill:#0173b2;fill-opacity:0.4;fill-rule:nonzero;stroke:none"
           d="m 226.4249,45.29375 h 6.569 v 0.0041 h -6.569 z" /></g></g><g
       id="g9900"><g
         clip-path="url(#clipPath9906)"
         id="g9902"><path
           id="path9908"
           style="fill:#0173b2;fill-opacity:0.4;fill-rule:nonzero;stroke:none"
           d="m 232.9939,45.29375 h 6.569 v 0 z" /></g></g><g
       id="g9910"><g
         clip-path="url(#clipPath9916)"
         id="g9912"><path
           id="path9918"
           style="fill:#0173b2;fill-opacity:0.4;fill-rule:nonzero;stroke:none"
           d="m 239.5629,45.29375 h 6.569 v 0.0041 h -6.569 z" /></g></g><g
       id="g9920"><g
         clip-path="url(#clipPath9926)"
         id="g9922"><path
           id="path9928"
           style="fill:#0173b2;fill-opacity:0.4;fill-rule:nonzero;stroke:none"
           d="m 246.1319,45.29375 h 6.569 v 0 z" /></g></g><g
       id="g9930"><g
         clip-path="url(#clipPath9936)"
         id="g9932"><path
           id="path9938"
           style="fill:#0173b2;fill-opacity:0.4;fill-rule:nonzero;stroke:none"
           d="m 252.7009,45.29375 h 6.569 v 0.0082 h -6.569 z" /></g></g><g
       id="g9940"><g
         clip-path="url(#clipPath9946)"
         id="g9942"><path
           id="path9948"
           style="fill:#0173b2;fill-opacity:0.4;fill-rule:nonzero;stroke:none"
           d="m 259.2699,45.29375 h 6.56899 v 0.0082 h -6.56899 z" /></g></g><g
       id="g9950"><g
         clip-path="url(#clipPath9956)"
         id="g9952"><path
           id="path9958"
           style="fill:#0173b2;fill-opacity:0.4;fill-rule:nonzero;stroke:none"
           d="m 265.83889,45.29375 h 6.569 v 0.0041 h -6.569 z" /></g></g><g
       id="g9960"><g
         clip-path="url(#clipPath9966)"
         id="g9962"><path
           id="path9968"
           style="fill:#0173b2;fill-opacity:0.4;fill-rule:nonzero;stroke:none"
           d="m 272.40789,45.29375 h 6.569 v 0 z" /></g></g><g
       id="g9970"><g
         clip-path="url(#clipPath9976)"
         id="g9972"><path
           id="path9978"
           style="fill:#0173b2;fill-opacity:0.4;fill-rule:nonzero;stroke:none"
           d="m 278.97689,45.29375 h 6.569 v 0.0082 h -6.569 z" /></g></g><g
       id="g9980"><g
         clip-path="url(#clipPath9986)"
         id="g9982"><path
           id="path9988"
           style="fill:#0173b2;fill-opacity:0.4;fill-rule:nonzero;stroke:none"
           d="m 285.54589,45.29375 h 6.569 v 0.0082 h -6.569 z" /></g></g><g
       id="g9990"><g
         clip-path="url(#clipPath9996)"
         id="g9992"><path
           id="path9998"
           style="fill:#0173b2;fill-opacity:0.4;fill-rule:nonzero;stroke:none"
           d="m 292.11489,45.29375 h 6.569 v 0 z" /></g></g><g
       id="g10000"><g
         clip-path="url(#clipPath10006)"
         id="g10002"><path
           id="path10008"
           style="fill:#0173b2;fill-opacity:0.4;fill-rule:nonzero;stroke:none"
           d="m 298.68389,45.29375 h 6.569 v 0.0041 h -6.569 z" /></g></g><g
       id="g10010"><g
         clip-path="url(#clipPath10016)"
         id="g10012"><path
           id="path10018"
           style="fill:#0173b2;fill-opacity:0.4;fill-rule:nonzero;stroke:none"
           d="m 305.25289,45.29375 h 6.569 v 0.0041 h -6.569 z" /></g></g><g
       id="g10020"><g
         clip-path="url(#clipPath10026)"
         id="g10022"><path
           id="path10028"
           style="fill:#0173b2;fill-opacity:0.4;fill-rule:nonzero;stroke:none"
           d="m 311.82189,45.29375 h 6.569 v 0.0041 h -6.569 z" /></g></g><g
       id="g10030"><g
         clip-path="url(#clipPath10036)"
         id="g10032"><path
           id="path10038"
           style="fill:#0173b2;fill-opacity:0.4;fill-rule:nonzero;stroke:none"
           d="m 318.39089,45.29375 h 6.56899 v 0 z" /></g></g><g
       id="g10040"><g
         clip-path="url(#clipPath10046)"
         id="g10042"><path
           id="path10048"
           style="fill:#0173b2;fill-opacity:0.4;fill-rule:nonzero;stroke:none"
           d="m 324.95988,45.29375 h 6.569 v 0.0082 h -6.569 z" /></g></g><g
       id="g10050"><g
         clip-path="url(#clipPath10056)"
         id="g10052"><path
           id="path10058"
           style="fill:#0173b2;fill-opacity:0.4;fill-rule:nonzero;stroke:none"
           d="m 331.52888,45.29375 h 6.569 v 0 z" /></g></g><g
       id="g10060"><g
         clip-path="url(#clipPath10066)"
         id="g10062"><path
           id="path10068"
           style="fill:#0173b2;fill-opacity:0.4;fill-rule:nonzero;stroke:none"
           d="m 338.09788,45.29375 h 6.569 v 0 z" /></g></g><g
       id="g10070"><g
         clip-path="url(#clipPath10076)"
         id="g10072"><path
           id="path10078"
           style="fill:#0173b2;fill-opacity:0.4;fill-rule:nonzero;stroke:none"
           d="m 344.66688,45.29375 h 6.569 v 0.0041 h -6.569 z" /></g></g><g
       id="g10080"><g
         clip-path="url(#clipPath10086)"
         id="g10082"><path
           id="path10088"
           style="fill:#cc78bc;fill-opacity:0.4;fill-rule:nonzero;stroke:none"
           d="M 30.091099,45.29375 H 44.006921 V 83.296388 H 30.091099 Z" /></g></g><g
       id="g10090"><g
         clip-path="url(#clipPath10096)"
         id="g10092"><path
           id="path10098"
           style="fill:#cc78bc;fill-opacity:0.4;fill-rule:nonzero;stroke:none"
           d="m 44.006921,45.29375 h 13.915821 v 58.12168 H 44.006921 Z" /></g></g><g
       id="g10100"><g
         clip-path="url(#clipPath10106)"
         id="g10102"><path
           id="path10108"
           style="fill:#cc78bc;fill-opacity:0.4;fill-rule:nonzero;stroke:none"
           d="M 57.922742,45.29375 H 71.838564 V 85.531837 H 57.922742 Z" /></g></g><g
       id="g10110"><g
         clip-path="url(#clipPath10116)"
         id="g10112"><path
           id="path10118"
           style="fill:#cc78bc;fill-opacity:0.4;fill-rule:nonzero;stroke:none"
           d="M 71.838564,45.29375 H 85.754386 V 81.806088 H 71.838564 Z" /></g></g><g
       id="g10120"><g
         clip-path="url(#clipPath10126)"
         id="g10122"><path
           id="path10128"
           style="fill:#cc78bc;fill-opacity:0.4;fill-rule:nonzero;stroke:none"
           d="M 85.754386,45.29375 H 99.670207 V 69.883692 H 85.754386 Z" /></g></g><g
       id="g10130"><g
         clip-path="url(#clipPath10136)"
         id="g10132"><path
           id="path10138"
           style="fill:#cc78bc;fill-opacity:0.4;fill-rule:nonzero;stroke:none"
           d="M 99.670207,45.29375 H 113.58603 V 62.432195 H 99.670207 Z" /></g></g><g
       id="g10140"><g
         clip-path="url(#clipPath10146)"
         id="g10142"><path
           id="path10148"
           style="fill:#cc78bc;fill-opacity:0.4;fill-rule:nonzero;stroke:none"
           d="m 113.58603,45.29375 h 13.91582 v 9.686947 h -13.91582 z" /></g></g><g
       id="g10150"><g
         clip-path="url(#clipPath10156)"
         id="g10152"><path
           id="path10158"
           style="fill:#cc78bc;fill-opacity:0.4;fill-rule:nonzero;stroke:none"
           d="m 127.50185,45.29375 h 13.91582 v 17.138445 h -13.91582 z" /></g></g><g
       id="g10160"><g
         clip-path="url(#clipPath10166)"
         id="g10162"><path
           id="path10168"
           style="fill:#cc78bc;fill-opacity:0.4;fill-rule:nonzero;stroke:none"
           d="m 141.41767,45.29375 h 13.91582 v 7.451498 h -13.91582 z" /></g></g><g
       id="g10170"><g
         clip-path="url(#clipPath10176)"
         id="g10172"><path
           id="path10178"
           style="fill:#cc78bc;fill-opacity:0.4;fill-rule:nonzero;stroke:none"
           d="m 155.33349,45.29375 h 13.91582 v 2.235449 h -13.91582 z" /></g></g><g
       id="g10180"><g
         clip-path="url(#clipPath10186)"
         id="g10182"><path
           id="path10188"
           style="fill:#cc78bc;fill-opacity:0.4;fill-rule:nonzero;stroke:none"
           d="m 169.24931,45.29375 h 13.91583 v 0 z" /></g></g><g
       id="g10190"><g
         clip-path="url(#clipPath10196)"
         id="g10192"><path
           id="path10198"
           style="fill:#cc78bc;fill-opacity:0.4;fill-rule:nonzero;stroke:none"
           d="m 183.16514,45.29375 h 13.91582 v 0 z" /></g></g><g
       id="g10200"><g
         clip-path="url(#clipPath10206)"
         id="g10202"><path
           id="path10208"
           style="fill:#cc78bc;fill-opacity:0.4;fill-rule:nonzero;stroke:none"
           d="m 197.08096,45.29375 h 13.91582 v 2.980599 h -13.91582 z" /></g></g><g
       id="g10210"><g
         clip-path="url(#clipPath10216)"
         id="g10212"><path
           id="path10218"
           style="fill:#cc78bc;fill-opacity:0.4;fill-rule:nonzero;stroke:none"
           d="m 210.99678,45.29375 h 13.91582 v 2.235449 h -13.91582 z" /></g></g><g
       id="g10220"><g
         clip-path="url(#clipPath10226)"
         id="g10222"><path
           id="path10228"
           style="fill:#cc78bc;fill-opacity:0.4;fill-rule:nonzero;stroke:none"
           d="m 224.9126,45.29375 h 13.91582 v 5.216048 H 224.9126 Z" /></g></g><g
       id="g10230"><g
         clip-path="url(#clipPath10236)"
         id="g10232"><path
           id="path10238"
           style="fill:#cc78bc;fill-opacity:0.4;fill-rule:nonzero;stroke:none"
           d="m 238.82842,45.29375 h 13.91582 v 4.470899 h -13.91582 z" /></g></g><g
       id="g10240"><g
         clip-path="url(#clipPath10246)"
         id="g10242"><path
           id="path10248"
           style="fill:#cc78bc;fill-opacity:0.4;fill-rule:nonzero;stroke:none"
           d="m 252.74424,45.29375 h 13.91583 v 1.4903 h -13.91583 z" /></g></g><g
       id="g10250"><g
         clip-path="url(#clipPath10256)"
         id="g10252"><path
           id="path10258"
           style="fill:#cc78bc;fill-opacity:0.4;fill-rule:nonzero;stroke:none"
           d="m 266.66007,45.29375 h 13.91582 v 0.74515 h -13.91582 z" /></g></g><g
       id="g10260"><g
         clip-path="url(#clipPath10266)"
         id="g10262"><path
           id="path10268"
           style="fill:#cc78bc;fill-opacity:0.4;fill-rule:nonzero;stroke:none"
           d="m 280.57589,45.29375 h 13.91582 v 1.4903 h -13.91582 z" /></g></g><g
       id="g10270"><g
         clip-path="url(#clipPath10276)"
         id="g10272"><path
           id="path10278"
           style="fill:#cc78bc;fill-opacity:0.4;fill-rule:nonzero;stroke:none"
           d="m 294.49171,45.29375 h 13.91582 v 0.74515 h -13.91582 z" /></g></g><g
       id="g10280"><g
         clip-path="url(#clipPath10286)"
         id="g10282"><path
           id="path10288"
           style="fill:#cc78bc;fill-opacity:0.4;fill-rule:nonzero;stroke:none"
           d="m 308.40753,45.29375 h 13.91582 v 2.235449 h -13.91582 z" /></g></g><g
       id="g10290"><path
         id="path10292"
         style="fill:#000000;fill-opacity:1;fill-rule:nonzero;stroke:#000000;stroke-width:0.80000001;stroke-linecap:butt;stroke-linejoin:round;stroke-miterlimit:10;stroke-dasharray:none;stroke-opacity:1"
         d="m 22.785937,45.29375 v -3.5" /><text
         id="text10296"
         style="font-variant:normal;font-weight:normal;font-size:14.00000035px;font-family:sans-serif;-inkscape-font-specification:'sans-serif, Normal';writing-mode:lr;fill:#000000;fill-opacity:1;fill-rule:nonzero;stroke:none;font-style:normal;font-stretch:normal;text-anchor:start;text-align:start;font-variant-ligatures:normal;font-variant-caps:normal;font-variant-numeric:normal;font-feature-settings:normal;"
         transform="matrix(1,0,0,-1,7.2,27.653125)"><tspan
           id="tspan10294"
           y="0"
           x="0 8.9040003 13.356 22.26">0.00</tspan></text>
<path
         id="path10298"
         style="fill:#000000;fill-opacity:1;fill-rule:nonzero;stroke:#000000;stroke-width:0.80000001;stroke-linecap:butt;stroke-linejoin:round;stroke-miterlimit:10;stroke-dasharray:none;stroke-opacity:1"
         d="m 84.173819,45.29375 v -3.5" /><text
         id="text10302"
         style="font-variant:normal;font-weight:normal;font-size:14.00000035px;font-family:sans-serif;-inkscape-font-specification:'sans-serif, Normal';writing-mode:lr;fill:#000000;fill-opacity:1;fill-rule:nonzero;stroke:none;font-style:normal;font-stretch:normal;text-anchor:start;text-align:start;font-variant-ligatures:normal;font-variant-caps:normal;font-variant-numeric:normal;font-feature-settings:normal;"
         transform="matrix(1,0,0,-1,68.587881,27.653125)"><tspan
           id="tspan10300"
           y="0"
           x="0 8.9040003 13.356 22.26">0.05</tspan></text>
<path
         id="path10304"
         style="fill:#000000;fill-opacity:1;fill-rule:nonzero;stroke:#000000;stroke-width:0.80000001;stroke-linecap:butt;stroke-linejoin:round;stroke-miterlimit:10;stroke-dasharray:none;stroke-opacity:1"
         d="m 145.5617,45.29375 v -3.5" /><text
         id="text10308"
         style="font-variant:normal;font-weight:normal;font-size:14.00000035px;font-family:sans-serif;-inkscape-font-specification:'sans-serif, Normal';writing-mode:lr;fill:#000000;fill-opacity:1;fill-rule:nonzero;stroke:none;font-style:normal;font-stretch:normal;text-anchor:start;text-align:start;font-variant-ligatures:normal;font-variant-caps:normal;font-variant-numeric:normal;font-feature-settings:normal;"
         transform="matrix(1,0,0,-1,129.97576,27.653125)"><tspan
           id="tspan10306"
           y="0"
           x="0 8.9040003 13.356 22.26">0.10</tspan></text>
<path
         id="path10310"
         style="fill:#000000;fill-opacity:1;fill-rule:nonzero;stroke:#000000;stroke-width:0.80000001;stroke-linecap:butt;stroke-linejoin:round;stroke-miterlimit:10;stroke-dasharray:none;stroke-opacity:1"
         d="m 206.94958,45.29375 v -3.5" /><text
         id="text10314"
         style="font-variant:normal;font-weight:normal;font-size:14.00000035px;font-family:sans-serif;-inkscape-font-specification:'sans-serif, Normal';writing-mode:lr;fill:#000000;fill-opacity:1;fill-rule:nonzero;stroke:none;font-style:normal;font-stretch:normal;text-anchor:start;text-align:start;font-variant-ligatures:normal;font-variant-caps:normal;font-variant-numeric:normal;font-feature-settings:normal;"
         transform="matrix(1,0,0,-1,191.36364,27.653125)"><tspan
           id="tspan10312"
           y="0"
           x="0 8.9040003 13.356 22.26">0.15</tspan></text>
<path
         id="path10316"
         style="fill:#000000;fill-opacity:1;fill-rule:nonzero;stroke:#000000;stroke-width:0.80000001;stroke-linecap:butt;stroke-linejoin:round;stroke-miterlimit:10;stroke-dasharray:none;stroke-opacity:1"
         d="m 268.33746,45.29375 v -3.5" /><text
         id="text10320"
         style="font-variant:normal;font-weight:normal;font-size:14.00000035px;font-family:sans-serif;-inkscape-font-specification:'sans-serif, Normal';writing-mode:lr;fill:#000000;fill-opacity:1;fill-rule:nonzero;stroke:none;font-style:normal;font-stretch:normal;text-anchor:start;text-align:start;font-variant-ligatures:normal;font-variant-caps:normal;font-variant-numeric:normal;font-feature-settings:normal;"
         transform="matrix(1,0,0,-1,252.75153,27.653125)"><tspan
           id="tspan10318"
           y="0"
           x="0 8.9040003 13.356 22.26">0.20</tspan></text>
<path
         id="path10322"
         style="fill:#000000;fill-opacity:1;fill-rule:nonzero;stroke:#000000;stroke-width:0.80000001;stroke-linecap:butt;stroke-linejoin:round;stroke-miterlimit:10;stroke-dasharray:none;stroke-opacity:1"
         d="m 329.72534,45.29375 v -3.5" /><text
         id="text10326"
         style="font-variant:normal;font-weight:normal;font-size:14.00000035px;font-family:sans-serif;-inkscape-font-specification:'sans-serif, Normal';writing-mode:lr;fill:#000000;fill-opacity:1;fill-rule:nonzero;stroke:none;font-style:normal;font-stretch:normal;text-anchor:start;text-align:start;font-variant-ligatures:normal;font-variant-caps:normal;font-variant-numeric:normal;font-feature-settings:normal;"
         transform="matrix(1,0,0,-1,314.13941,27.653125)"><tspan
           id="tspan10324"
           y="0"
           x="0 8.9040003 13.356 22.26">0.25</tspan></text>
<text
         id="text10330"
         style="font-variant:normal;font-weight:normal;font-size:14.00000035px;font-family:sans-serif;-inkscape-font-specification:'sans-serif, Normal';writing-mode:lr;fill:#000000;fill-opacity:1;fill-rule:nonzero;stroke:none;font-style:normal;font-stretch:normal;text-anchor:start;text-align:start;font-variant-ligatures:normal;font-variant-caps:normal;font-variant-numeric:normal;font-feature-settings:normal;"
         transform="matrix(1,0,0,-1,132.16386,10.10625)"><tspan
           id="tspan10328"
           y="0"
           x="0 8.8900003 14.378 22.959999 31.836 40.726002 49.307999 55.062 63.952 68.403999 77.293999 85.903999 94.192001 98.084 106.666 112.154 116.046 124.614">Standard deviation</tspan></text>
</g><g
       id="g10332"><g
         clip-path="url(#clipPath10338)"
         id="g10334"><path
           id="path10340"
           style="fill:none;stroke:#0173b2;stroke-width:1.5;stroke-linecap:square;stroke-linejoin:round;stroke-miterlimit:10;stroke-dasharray:none;stroke-opacity:1"
           d="m 20.285435,47.692191 2.625598,-2.398441 2.625598,109.33245 2.625598,144.10755 5.251196,-111.80097 2.625598,-44.9679 2.625598,-20.10213 2.625598,-13.39559 2.625598,-17.642265 2.625598,-12.681497 2.625598,-8.412204 5.251196,-8.889028 2.625598,-2.321395 2.625598,-1.23116 2.625598,-0.624586 2.625598,-1.059326 2.625598,-1.508587 2.625598,-0.236315 2.625598,-1.834 2.625598,-1.663715 2.625598,-0.514498 2.625598,-0.792302 2.625598,-0.937474 2.625599,-0.694799 2.625598,-0.111903 2.625598,-0.726959 7.876794,-0.291562 5.251194,-0.556328 2.6256,0.243143 15.75359,-0.285077 2.6256,-0.07352 2.62559,0.182646 2.6256,-0.177609 2.6256,0.13478 5.2512,-0.180055 2.62559,-0.07857 2.6256,0.247368 2.6256,-0.281226 2.6256,0.10167 7.87679,-0.218464 5.2512,0.03771 7.87679,-3.14e-4 7.8768,-0.07572 13.12799,0.02393 18.37918,-0.02887 34.13278,0.0079 13.12799,-0.02325 7.87679,0.01261 18.37919,-0.01261 7.87679,0.02706 13.12799,-0.02706 7.87679,0.03067 7.8768,-0.03067 15.75359,0.0097 7.87679,-0.0097 2.6256,0.188162 2.6256,-0.188162 2.62559,0.604145 2.6256,-0.604145 v 0" /></g></g><g
       id="g10342"><g
         clip-path="url(#clipPath10348)"
         id="g10344"><path
           id="path10350"
           style="fill:none;stroke:#cc78bc;stroke-width:1.5;stroke-linecap:square;stroke-linejoin:round;stroke-miterlimit:10;stroke-dasharray:none;stroke-opacity:1"
           d="m -1,45.482324 2.902096,0.172343 2.881076,0.297318 2.881077,0.489072 2.881076,0.765027 2.881077,1.138673 2.881076,1.613341 2.881077,2.176754 2.881077,2.797412 2.881076,3.424619 2.881077,3.993181 2.881076,4.432623 5.762153,9.36737 2.881077,4.442723 2.881076,3.958445 2.881077,3.280853 2.881076,2.477728 2.881077,1.62737 2.881076,0.805422 2.881077,0.07281 2.881077,-0.532717 2.881076,-0.999727 2.881077,-1.340316 2.881076,-1.582311 2.881077,-1.758923 5.762153,-3.919722 5.762153,-4.349849 11.524306,-9.047534 2.881076,-2.051297 2.881077,-1.86903 2.881072,-1.653647 2.88108,-1.418271 2.88108,-1.175089 2.88107,-0.934301 2.88108,-0.704728 2.88108,-0.495639 2.88107,-0.318497 5.76216,-0.303419 5.76215,-0.306281 2.88108,-0.329415 2.88107,-0.51457 2.88108,-0.717695 2.88108,-0.908389 5.76215,-2.214345 5.76215,-2.339465 5.76216,-2.037335 2.88107,-0.829369 2.88108,-0.690245 2.88107,-0.553336 2.88108,-0.423693 5.76215,-0.496608 5.76216,-0.09435 5.76215,0.223381 8.64323,0.691738 25.92969,2.341832 5.76215,0.28651 5.76215,0.0095 5.76216,-0.267111 8.64323,-0.74852 14.40538,-1.426417 5.76215,-0.395933 5.76216,-0.217447 8.64323,-0.05101 25.92969,0.07971 8.64322,-0.09456 8.64323,-0.299514 14.40539,-0.563943 11.5243,-0.152463 5.76216,-7.4e-4 v 0" /></g></g><g
       id="g10352"><path
         id="path10354"
         style="fill:none;stroke:#000000;stroke-width:0.80000001;stroke-linecap:square;stroke-linejoin:miter;stroke-miterlimit:10;stroke-dasharray:none;stroke-opacity:1"
         d="m 20.330422,45.29375 v 266.112" /><path
         id="path10356"
         style="fill:none;stroke:#000000;stroke-width:0.80000001;stroke-linecap:square;stroke-linejoin:miter;stroke-miterlimit:10;stroke-dasharray:none;stroke-opacity:1"
         d="m 377.45042,45.29375 v 266.112" /><path
         id="path10358"
         style="fill:none;stroke:#000000;stroke-width:0.80000001;stroke-linecap:square;stroke-linejoin:miter;stroke-miterlimit:10;stroke-dasharray:none;stroke-opacity:1"
         d="M 20.330422,45.29375 H 377.45042" /><path
         id="path10360"
         style="fill:none;stroke:#000000;stroke-width:0.80000001;stroke-linecap:square;stroke-linejoin:miter;stroke-miterlimit:10;stroke-dasharray:none;stroke-opacity:1"
         d="M 20.330422,311.40575 H 377.45042" /><path
         id="path10362"
         style="fill:#ffffff;fill-opacity:0.8;fill-rule:nonzero;stroke:#cccccc;stroke-width:1;stroke-linecap:butt;stroke-linejoin:miter;stroke-miterlimit:10;stroke-dasharray:none;stroke-opacity:0.8"
         d="m 158.75667,259.112 h 208.89375 c 1.86667,0 2.8,0.93333 2.8,2.8 v 39.69375 c 0,1.86667 -0.93333,2.8 -2.8,2.8 H 158.75667 c -1.86666,0 -2.8,-0.93333 -2.8,-2.8 V 261.912 c 0,-1.86667 0.93334,-2.8 2.8,-2.8 z" /><path
         id="path10364"
         style="fill:#0173b2;fill-opacity:0.4;fill-rule:nonzero;stroke:none"
         d="m 161.55667,288.16512 h 28 v 9.8 h -28 z" /><text
         id="text10368"
         style="font-variant:normal;font-weight:normal;font-size:14.00000035px;font-family:sans-serif;-inkscape-font-specification:'sans-serif, Normal';writing-mode:lr;fill:#000000;fill-opacity:1;fill-rule:nonzero;stroke:none;font-style:normal;font-stretch:normal;text-anchor:start;text-align:start;font-variant-ligatures:normal;font-variant-caps:normal;font-variant-numeric:normal;font-feature-settings:normal;"
         transform="matrix(1,0,0,-1,200.75667,288.16512)"><tspan
           id="tspan10366"
           y="0"
           x="0 7.6999998 16.268 25.143999 30.072001 38.639999 44.394001 58.029999 66.612 72.099998 75.991997 84.559998 93.435997">conformations</tspan></text>
<path
         id="path10370"
         style="fill:#cc78bc;fill-opacity:0.4;fill-rule:nonzero;stroke:none"
         d="m 161.55667,267.61825 h 28 v 9.8 h -28 z" /><text
         id="text10374"
         style="font-variant:normal;font-weight:normal;font-size:14.00000035px;font-family:sans-serif;-inkscape-font-specification:'sans-serif, Normal';writing-mode:lr;fill:#000000;fill-opacity:1;fill-rule:nonzero;stroke:none;font-style:normal;font-stretch:normal;text-anchor:start;text-align:start;font-variant-ligatures:normal;font-variant-caps:normal;font-variant-numeric:normal;font-feature-settings:normal;"
         transform="matrix(1,0,0,-1,200.75667,267.61825)"><tspan
           id="tspan10372"
           y="0"
           x="0 7.6999998 16.576 25.186001 38.821999 42.714001 50.414001 58.995998 62.888 67.339996 75.949997 84.825996 93.113998 97.005997 102.76 111.328 120.204 133.84 142.45 151.326 156.814">chemical environments</tspan></text>
</g></g></svg>